<svg xmlns="http://www.w3.org/2000/svg" xmlns:xlink="http://www.w3.org/1999/xlink" width="500" zoomAndPan="magnify" viewBox="0 0 375 374.999991" height="500" preserveAspectRatio="xMidYMid meet" version="1.0"><defs><g/></defs><g fill="#b99b6f" fill-opacity="1"><g transform="translate(57.339142, 297.18748)"><g><path d="M 32.371094 0.933594 L 38.59375 0 L 50.734375 0.621094 L 57.582031 -0.3125 L 67.542969 0.3125 L 76.257812 -3.421875 L 79.992188 -9.027344 L 79.058594 -41.707031 L 79.992188 -51.355469 L 79.679688 -57.890625 L 80.300781 -69.097656 L 79.679688 -75.945312 L 79.679688 -88.082031 L 82.480469 -90.886719 L 85.59375 -89.640625 L 90.574219 -85.59375 L 94.308594 -80.925781 L 107.070312 -68.164062 L 111.117188 -63.183594 L 119.519531 -55.089844 L 126.054688 -50.421875 L 132.902344 -50.109375 L 139.128906 -54.78125 L 143.484375 -59.449219 L 147.222656 -63.183594 L 155.9375 -73.453125 L 160.292969 -76.566406 L 173.054688 -89.640625 L 177.101562 -91.507812 L 179.589844 -86.839844 L 178.96875 -69.71875 L 179.902344 -57.269531 L 179.28125 -45.132812 L 179.902344 -33.613281 L 179.28125 -28.011719 L 179.902344 -14.007812 L 179.902344 -9.335938 L 182.390625 -2.179688 L 188.929688 -0.3125 L 226.589844 0.933594 L 233.125 -2.488281 L 236.859375 -11.515625 L 235.925781 -27.703125 L 236.550781 -33.925781 L 235.925781 -127.300781 L 236.550781 -134.148438 L 236.238281 -164.960938 L 236.550781 -170.875 L 235.925781 -184.261719 L 236.238281 -189.550781 L 235.925781 -202.3125 L 236.550781 -208.226562 L 232.816406 -214.761719 L 226.277344 -218.1875 L 217.253906 -215.386719 L 210.714844 -211.339844 L 197.644531 -197.644531 L 193.597656 -192.664062 L 189.863281 -189.238281 L 185.503906 -183.636719 L 158.113281 -155.625 L 154.070312 -150.332031 L 135.082031 -131.035156 L 129.480469 -127.300781 L 122.945312 -129.792969 L 119.207031 -135.082031 L 114.851562 -139.441406 L 109.25 -146.597656 L 102.402344 -152.824219 L 74.078125 -184.261719 L 69.71875 -187.996094 L 61.628906 -197.644531 L 56.648438 -202 L 48.554688 -210.40625 L 41.394531 -215.695312 L 32.679688 -218.1875 L 25.832031 -215.074219 L 22.410156 -208.539062 L 23.34375 -189.550781 L 22.410156 -177.414062 L 23.03125 -171.808594 L 22.722656 -122.011719 L 23.34375 -115.785156 L 22.410156 -84.347656 L 23.03125 -78.433594 L 22.722656 -9.648438 L 26.144531 -3.113281 Z M 32.371094 0.933594 "/></g></g></g></svg>